#!OML:ASF F:\VICON\USERDATA\INSTALL\rory3\rory3.ASF
:FULLY-SPECIFIED
:DEGREES
91
root 1.95878 18.8741 -4.2355 -4.41625 -11.8512 0.978988
lowerback 5.68037 0.366858 -2.75132
upperback 0.607998 0.295347 -0.688708
thorax -2.56906 0.171436 0.81208
lowerneck -9.42425 -3.9018 -7.84048
upperneck 27.9771 -6.06154 7.04773
head 11.0174 -2.83503 3.15734
rclavicle -1.77773e-014 1.51076e-014
rhumerus -25.2943 28.8122 -88.9743
rradius 83.3698
rwrist -17.0182
rhand -29.1342 15.0034
rfingers 7.12502
rthumb -2.48131 -14.9619
lclavicle -1.77773e-014 1.51076e-014
lhumerus -13.976 -39.4952 91.6702
lradius 89.8032
lwrist 21.1978
lhand -7.85327 24.0306
lfingers 7.12502
lthumb 18.05 53.2131
rfemur 6.11276 20.8071 18.3747
rtibia 11.8509
rfoot -12.1395 -21.1056
rtoes -7.81959
lfemur 0 0 0
ltibia 0
lfoot 0 0
ltoes 0
92
root 1.95891 18.8751 -4.23862 -4.38553 -11.8134 0.948347
lowerback 5.67855 0.339675 -2.69584
upperback 0.601902 0.262538 -0.690553
thorax -2.57292 0.154624 0.781643
lowerneck -9.52482 -3.83377 -7.70111
upperneck 28.069 -5.9856 7.02595
head 11.0596 -2.78607 3.13548
rclavicle 2.36678e-014 1.51076e-014
rhumerus -24.8378 29.7962 -89.0988
rradius 83.4263
rwrist -17.6251
rhand -29.235 14.7605
rfingers 7.12502
rthumb -2.57865 -15.2037
lclavicle 2.36678e-014 1.51076e-014
lhumerus -13.8562 -39.667 91.5865
lradius 89.8097
lwrist 21.1786
lhand -7.3278 24.4432
lfingers 7.12502
lthumb 18.5555 53.5782
rfemur 6.07207 20.8372 18.4114
rtibia 11.8582
rfoot -12.1065 -21.1985
rtoes -7.84259
lfemur 0 0 0
ltibia 0
lfoot 0 0
ltoes 0
93
root 1.95966 18.8761 -4.24459 -4.38249 -11.7898 0.950566
lowerback 5.70692 0.306577 -2.6794
upperback 0.623946 0.219038 -0.686679
thorax -2.56456 0.132517 0.779784
lowerneck -9.67152 -3.78217 -7.67801
upperneck 28.141 -5.92883 7.08892
head 11.1123 -2.74736 3.16173
rclavicle -8.54153e-015 7.95139e-015
rhumerus -24.8718 30.2019 -89.3922
rradius 83.7967
rwrist -18.2423
rhand -28.9079 15.1609
rfingers 7.12502
rthumb -2.26273 -14.8069
lclavicle -8.54153e-015 7.95139e-015
lhumerus -13.7324 -39.7146 91.4966
lradius 89.7897
lwrist 21.2052
lhand -6.82973 24.6653
lfingers 7.12502
lthumb 19.0346 53.7539
rfemur 6.02792 20.8756 18.4122
rtibia 11.8912
rfoot -12.1258 -21.2455
rtoes -7.74542
lfemur 0 0 0
ltibia 0
lfoot 0 0
ltoes 0
94
root 1.96146 18.8757 -4.24508 -4.4295 -11.8066 1.00441
lowerback 5.72355 0.296438 -2.71273
upperback 0.647976 0.203437 -0.682142
thorax -2.54871 0.124703 0.804379
lowerneck -9.77548 -3.7299 -7.66865
upperneck 28.1703 -5.86867 7.15322
head 11.1403 -2.70927 3.19119
rclavicle -1.13136e-014 -1.0138e-014
rhumerus -24.983 30.4649 -89.6024
rradius 84.2114
rwrist -18.2762
rhand -28.3876 15.5831
rfingers 7.12502
rthumb -1.76022 -14.3894
lclavicle -1.13136e-014 -1.0138e-014
lhumerus -13.7023 -39.7163 91.5077
lradius 89.7906
lwrist 21.2316
lhand -6.54201 24.7583
lfingers 7.12502
lthumb 19.3113 53.8194
rfemur 6.04125 20.8787 18.3567
rtibia 11.9364
rfoot -12.1773 -21.2175
rtoes -7.67698
lfemur 0 0 0
ltibia 0
lfoot 0 0
ltoes 0
95
root 1.96155 18.8746 -4.24467 -4.47619 -11.8869 1.02364
lowerback 5.75804 0.330372 -2.72954
upperback 0.646531 0.24666 -0.668528
thorax -2.57111 0.14672 0.824275
lowerneck -9.74033 -3.69076 -7.64083
upperneck 28.1268 -5.83253 7.20496
head 11.1136 -2.68468 3.20995
rclavicle -2.49941e-014 1.09332e-014
rhumerus -24.9601 30.7407 -89.7085
rradius 84.4899
rwrist -17.9133
rhand -28.1747 15.8759
rfingers 7.12502
rthumb -1.55467 -14.0982
lclavicle -2.49941e-014 1.09332e-014
lhumerus -13.7363 -39.7852 91.5632
lradius 89.7904
lwrist 21.3068
lhand -6.58367 24.7873
lfingers 7.12502
lthumb 19.2712 53.8525
rfemur 6.04958 20.8961 18.3423
rtibia 11.996
rfoot -12.2163 -21.1219
rtoes -7.65305
lfemur 0 0 0
ltibia 0
lfoot 0 0
ltoes 0
96
root 1.96101 18.8749 -4.24725 -4.45925 -11.9241 1.0273
lowerback 5.77164 0.358037 -2.72599
upperback 0.624194 0.283042 -0.659656
thorax -2.60304 0.165414 0.828391
lowerneck -9.68568 -3.6575 -7.5866
upperneck 28.0942 -5.80744 7.23923
head 11.0868 -2.66476 3.21663
rclavicle 1.16569e-014 -1.98785e-016
rhumerus -24.9082 30.9813 -89.8334
rradius 84.6926
rwrist -17.7863
rhand -28.1663 15.6891
rfingers 7.12502
rthumb -1.5465 -14.2851
lclavicle 1.16569e-014 -1.98785e-016
lhumerus -13.8084 -39.8308 91.629
lradius 89.8099
lwrist 21.5779
lhand -6.68989 24.745
lfingers 7.12502
lthumb 19.1691 53.8203
rfemur 5.9759 20.8683 18.3184
rtibia 12.0392
rfoot -12.2171 -21.083
rtoes -8.02052
lfemur 0 0 0
ltibia 0
lfoot 0 0
ltoes 0
97
root 1.96168 18.8754 -4.24801 -4.42906 -11.9332 1.09016
lowerback 5.73333 0.367387 -2.76028
upperback 0.614764 0.294053 -0.67549
thorax -2.5918 0.171134 0.830581
lowerneck -9.75886 -3.61845 -7.42344
upperneck 28.1434 -5.76953 7.1878
head 11.1095 -2.63435 3.17432
rclavicle -6.98386e-015 -1.39149e-015
rhumerus -24.8584 31.2441 -89.9723
rradius 84.9186
rwrist -18.2202
rhand -27.876 15.11
rfingers 7.12502
rthumb -1.26613 -14.866
lclavicle -6.98386e-015 -1.39149e-015
lhumerus -13.9693 -39.703 91.7328
lradius 89.9074
lwrist 22.1332
lhand -6.12143 24.7189
lfingers 7.12502
lthumb 19.7156 53.7391
rfemur 5.90806 20.8104 18.2152
rtibia 12.0422
rfoot -12.1995 -21.0689
rtoes -8.39843
lfemur 0 0 0
ltibia 0
lfoot 0 0
ltoes 0
98
root 1.96281 18.876 -4.24742 -4.40978 -11.9591 1.10276
lowerback 5.68796 0.379256 -2.71816
upperback 0.624988 0.313782 -0.695997
thorax -2.5562 0.179933 0.784571
lowerneck -9.81393 -3.57889 -7.26921
upperneck 28.1282 -5.74069 7.18744
head 11.1068 -2.60361 3.15023
rclavicle -1.24939e-014 -1.37161e-014
rhumerus -24.8106 31.4126 -90.134
rradius 85.1397
rwrist -19.006
rhand -27.5578 14.7529
rfingers 7.12502
rthumb -0.958844 -15.2247
lclavicle -1.24939e-014 -1.37161e-014
lhumerus -14.1968 -39.5252 91.8285
lradius 90.0872
lwrist 23.0502
lhand -5.35185 24.8918
lfingers 7.12502
lthumb 20.4553 53.8344
rfemur 5.87848 20.8078 18.1859
rtibia 12.0455
rfoot -12.1554 -21.0086
rtoes -8.24625
lfemur 0 0 0
ltibia 0
lfoot 0 0
ltoes 0
